<?xml version="1.0" standalone="no"?>
<!DOCTYPE svg PUBLIC "-//W3C//DTD SVG 20010904//EN"
 "http://www.w3.org/TR/2001/REC-SVG-20010904/DTD/svg10.dtd">
<svg version="1.0" xmlns="http://www.w3.org/2000/svg"
 width="500.000000pt" height="500.000000pt" viewBox="0 0 500.000000 500.000000"
 preserveAspectRatio="xMidYMid meet">
<metadata>
Created by potrace 1.14, written by Peter Selinger 2001-2017
</metadata>
<g transform="translate(0.000000,500.000000) scale(0.100000,-0.100000)"
fill="#000000" stroke="none">
<path d="M2005 4990 c-8 -13 5 -13 25 0 13 8 13 10 -2 10 -9 0 -20 -4 -23 -10z"/>
<path d="M2100 4975 c-257 -44 -456 -108 -685 -220 -275 -134 -449 -259 -671
-480 -328 -327 -538 -689 -659 -1136 l-37 -134 -4 -475 c-4 -529 -5 -521 66
-765 162 -550 525 -1037 1019 -1366 279 -186 595 -314 918 -374 126 -23 155
-25 468 -25 313 0 342 2 468 25 661 122 1254 517 1633 1087 160 240 300 574
358 856 25 120 26 131 26 527 0 393 -1 408 -25 523 -99 470 -317 879 -655
1226 -206 212 -409 363 -660 491 -253 129 -448 192 -739 241 -131 21 -174 24
-416 23 -234 -1 -288 -4 -405 -24z m465 -739 c51 -22 77 -69 72 -130 -4 -42
-10 -55 -41 -83 -30 -28 -43 -33 -86 -33 -43 0 -56 5 -86 33 -31 28 -37 41
-41 83 -9 105 83 171 182 130z m-733 -156 c-7 -28 -23 -67 -37 -88 -32 -47
-31 -52 5 -52 51 0 140 -55 140 -86 0 -7 -25 -21 -55 -30 -48 -15 -64 -16
-112 -6 -59 12 -107 37 -99 51 3 5 16 6 30 4 13 -3 27 0 30 6 5 7 -6 11 -30
11 -34 0 -36 2 -31 25 4 24 3 25 -13 10 -16 -14 -18 -14 -24 1 -11 30 23 111
65 153 41 41 117 75 133 60 6 -5 5 -28 -2 -59z m1446 24 c39 -26 80 -82 93
-127 10 -34 3 -71 -11 -62 -5 3 -7 12 -4 20 7 17 -14 85 -25 85 -12 0 -8 -39
4 -48 14 -10 19 -46 5 -37 -7 5 -9 -2 -4 -19 6 -25 4 -26 -32 -26 -44 0 -36
-17 11 -22 l30 -3 -34 -22 c-45 -29 -121 -38 -177 -23 -59 17 -72 34 -48 61
27 30 88 59 124 59 36 0 37 5 5 51 -27 41 -50 121 -42 143 5 13 12 13 39 4 18
-6 48 -21 66 -34z m-1197 -15 c52 -18 53 -24 15 -63 -58 -57 -107 -77 -178
-74 -65 3 -83 17 -46 36 20 10 19 10 -11 5 -30 -5 -32 -4 -23 13 41 76 151
113 243 83z m1002 -5 c41 -21 87 -64 87 -82 0 -10 -8 -13 -27 -8 -27 5 -27 5
-5 -6 37 -19 19 -33 -46 -36 -46 -2 -71 2 -101 18 -45 23 -116 89 -106 99 30
30 149 40 198 15z m-1476 -108 c-4 -43 -19 -88 -45 -138 -2 -5 17 -8 43 -8 46
0 111 -26 133 -53 9 -11 8 -18 -7 -31 -44 -40 -132 -55 -203 -36 -42 12 -57
28 -37 41 11 7 10 9 -3 9 -12 0 -18 8 -18 21 0 17 -3 19 -13 10 -19 -15 -27
-4 -27 38 0 77 68 172 142 200 35 13 41 3 35 -53z m1890 17 c42 -32 83 -113
83 -164 0 -42 -8 -53 -27 -38 -10 9 -13 7 -13 -10 0 -13 -6 -21 -17 -21 -16 0
-16 -2 -3 -10 38 -25 -72 -59 -147 -45 -21 3 -55 18 -76 31 -32 21 -36 28 -26
40 23 28 88 54 134 54 25 0 45 2 45 5 0 2 -9 22 -20 43 -21 41 -36 122 -27
146 8 20 42 8 94 -31z m197 -146 c44 -43 56 -63 65 -106 16 -73 0 -140 -26
-106 -12 18 -13 18 -13 -3 0 -16 -6 -22 -22 -22 -21 0 -21 0 -2 -14 18 -14 18
-15 -9 -25 -61 -23 -155 -5 -211 41 -20 16 -36 33 -36 37 0 19 87 46 142 44
l57 -1 -15 40 c-21 61 -16 168 8 168 5 0 33 -24 62 -53z m-2300 21 c10 -38 6
-101 -9 -142 l-13 -38 39 6 c43 7 113 -8 143 -30 19 -14 19 -15 -9 -44 -47
-49 -158 -74 -222 -49 -27 10 -27 11 -9 25 19 14 19 14 -2 14 -19 0 -21 4 -16
33 l5 32 -16 -29 c-23 -40 -40 -19 -39 47 2 64 29 122 79 165 42 38 60 40 69
10z m1190 -72 c77 -32 100 -115 45 -166 l-30 -29 21 -21 c17 -17 21 -29 16
-55 -6 -28 -3 -35 14 -40 14 -4 20 -15 20 -34 0 -25 5 -29 38 -35 73 -12 239
-7 251 8 29 35 -22 67 -63 40 -31 -20 -56 -12 -56 16 0 28 61 54 109 46 38 -6
89 -49 97 -82 3 -12 -2 -36 -10 -53 -28 -53 -57 -61 -226 -61 -82 0 -150 -4
-150 -8 0 -5 7 -29 15 -54 l16 -45 61 -7 c33 -3 102 -6 153 -6 50 0 140 -3
199 -7 97 -5 108 -8 116 -27 15 -39 47 -59 96 -59 52 0 82 23 100 76 12 35 38
47 48 21 16 -43 -40 -145 -90 -165 -20 -7 -22 -12 -15 -31 5 -13 88 -210 185
-438 97 -228 176 -424 176 -436 0 -28 -69 -133 -121 -183 -23 -23 -71 -56
-107 -73 -63 -31 -73 -33 -177 -33 -105 0 -114 2 -179 34 -81 40 -160 116
-200 192 l-29 56 100 224 c221 492 293 655 293 667 0 7 -11 12 -24 12 -31 0
-75 36 -92 75 l-13 32 -152 6 c-84 4 -191 7 -239 7 -53 0 -105 6 -134 16 -26
9 -50 14 -53 11 -3 -3 11 -35 31 -70 l36 -65 10 -188 c16 -320 19 -372 30
-589 6 -115 14 -276 18 -358 l7 -147 -103 -263 c-56 -144 -107 -266 -112 -271
-6 -6 -12 -2 -16 10 -4 10 -13 35 -21 54 -8 19 -52 133 -99 253 l-85 218 31
636 31 637 40 73 c44 80 41 87 -28 58 -23 -10 -68 -15 -128 -15 -50 0 -160 -3
-243 -7 -145 -6 -151 -7 -156 -28 -7 -29 -71 -85 -96 -85 -10 0 -21 -4 -25
-10 -3 -5 17 -58 44 -117 27 -59 106 -235 175 -391 69 -156 137 -305 151 -331
l24 -49 -26 -52 c-38 -76 -125 -160 -208 -201 -66 -32 -74 -34 -180 -34 -104
0 -114 2 -177 33 -45 22 -84 52 -122 93 -50 54 -106 142 -106 168 0 5 83 206
186 447 163 388 183 440 168 449 -63 38 -94 87 -94 149 0 53 31 49 50 -6 20
-59 73 -86 132 -69 30 9 43 20 53 45 l14 33 107 6 c59 4 155 7 214 7 59 0 128
3 154 6 42 6 49 11 61 42 31 73 33 72 -138 72 -127 0 -157 3 -177 17 -37 26
-49 45 -50 79 -1 86 119 134 190 76 19 -15 19 -19 7 -37 -15 -19 -15 -19 -50
0 -30 16 -38 17 -52 5 -9 -7 -15 -23 -13 -34 3 -18 11 -21 68 -24 36 -2 102
-1 147 3 81 7 83 7 77 30 -4 18 0 27 20 40 22 14 23 20 14 41 -10 20 -8 28 12
49 l23 24 -32 36 c-51 58 -38 115 37 155 44 23 119 26 166 6z m-1373 -118 c6
-24 9 -69 6 -101 -5 -57 -5 -59 16 -52 48 16 104 16 141 1 32 -13 36 -18 27
-35 -27 -50 -129 -101 -202 -101 -36 0 -47 19 -23 37 18 13 17 14 -8 8 -22 -6
-27 -3 -30 17 l-5 23 -9 -23 c-9 -22 -11 -22 -24 -7 -18 22 -25 115 -11 157
14 41 76 118 96 118 8 0 19 -19 26 -42z m2663 1 c19 -23 41 -58 47 -77 14 -41
7 -135 -11 -157 -11 -14 -14 -14 -26 2 -13 17 -13 17 -14 -1 0 -15 -5 -17 -27
-11 -26 6 -27 5 -9 -8 10 -8 16 -19 12 -25 -19 -31 -150 3 -207 55 -21 19 -39
40 -39 45 0 5 17 16 37 24 36 15 92 15 140 -1 22 -7 23 -6 17 51 -7 67 9 144
31 144 7 0 29 -19 49 -41z m-2822 -200 c9 -24 17 -68 17 -96 1 -57 3 -59 41
-38 14 8 52 14 88 15 77 0 87 -15 45 -68 -34 -43 -99 -78 -162 -88 -42 -7 -44
-6 -38 15 4 16 1 21 -11 19 -14 -2 -18 8 -23 52 l-6 55 -2 -45 c-2 -64 -14
-80 -36 -46 -20 31 -30 100 -21 149 8 43 63 130 79 124 6 -2 20 -24 29 -48z
m2983 -3 c37 -62 46 -153 18 -205 -29 -56 -43 -51 -45 16 l-1 58 -6 -55 c-5
-44 -9 -54 -23 -52 -12 2 -15 -3 -11 -18 4 -15 0 -20 -14 -20 -39 0 -123 31
-153 56 -35 30 -64 80 -55 94 9 15 127 11 155 -5 14 -8 28 -14 31 -15 4 0 9
28 11 63 5 70 31 141 50 135 7 -3 26 -26 43 -52z m-3112 -215 c15 -27 30 -70
33 -95 4 -25 9 -46 11 -46 3 0 17 9 32 20 34 23 100 39 136 33 21 -5 24 -9 19
-26 -20 -62 -85 -123 -157 -147 -44 -14 -56 -7 -39 21 11 18 11 18 -8 7 -16
-11 -22 -10 -34 7 -15 20 -15 20 -16 -2 0 -35 -26 -18 -51 33 -34 72 -25 171
23 232 17 20 23 15 51 -37z m3239 -4 c29 -58 28 -131 -3 -193 -28 -57 -46 -66
-52 -27 -4 27 -5 27 -12 6 -8 -26 -24 -29 -45 -10 -8 6 -6 2 4 -10 32 -38 -5
-40 -78 -4 -63 31 -105 76 -121 129 -5 18 -2 22 17 24 51 3 85 -5 125 -28 23
-13 44 -24 46 -24 3 0 8 21 12 47 10 70 55 150 76 137 5 -3 19 -24 31 -47z
m-3337 -229 c20 -24 41 -62 47 -85 6 -24 12 -43 15 -43 2 0 21 13 41 29 30 25
97 50 135 51 15 0 6 -56 -16 -95 -12 -21 -42 -54 -65 -72 -68 -51 -127 -59
-86 -11 l19 23 -23 -19 c-21 -19 -23 -19 -36 -1 -12 17 -13 17 -20 -6 -6 -24
-7 -24 -40 13 -33 38 -56 95 -56 140 0 32 29 118 40 118 5 0 25 -19 45 -42z
m3429 -5 c27 -79 15 -145 -36 -207 -32 -40 -48 -45 -49 -18 0 10 -3 12 -6 5
-7 -18 -23 -16 -47 5 -21 17 -21 17 -2 -6 41 -48 -18 -40 -86 11 -50 38 -89
101 -86 137 3 22 7 25 38 22 44 -5 106 -36 122 -62 14 -23 28 -26 28 -7 0 35
24 88 56 125 19 23 39 42 44 42 4 0 15 -21 24 -47z m-3453 -281 c16 -25 29
-52 29 -59 0 -23 26 -14 48 17 25 33 60 54 110 65 28 6 32 4 32 -16 0 -67 -59
-162 -121 -194 -37 -20 -42 -19 -36 4 4 17 2 18 -14 8 -15 -9 -21 -8 -33 8
-13 19 -14 18 -9 -8 7 -36 -6 -34 -47 6 -62 60 -85 150 -59 225 l11 32 30 -22
c17 -11 43 -41 59 -66z m3516 15 c7 -71 -15 -134 -65 -183 -42 -41 -56 -43
-49 -7 5 26 4 27 -9 8 -12 -16 -18 -17 -33 -8 -16 10 -18 9 -14 -8 7 -25 -6
-24 -48 4 -51 35 -97 101 -105 152 -3 25 -4 48 -1 51 14 15 95 -21 129 -57 21
-21 42 -39 47 -39 5 0 13 14 16 32 9 38 102 135 116 121 6 -6 13 -36 16 -66z
m-3579 -217 c23 -16 54 -49 68 -72 25 -39 28 -41 38 -24 38 64 108 115 141
102 15 -5 17 -14 11 -51 -7 -58 -29 -100 -74 -147 -41 -44 -67 -50 -57 -15 7
21 7 21 -8 2 -12 -16 -17 -17 -30 -7 -13 11 -15 10 -10 -7 7 -27 -6 -26 -47 2
-71 48 -114 149 -96 221 8 33 14 33 64 -4z m3598 4 c18 -71 -27 -175 -95 -221
-42 -28 -55 -29 -48 -2 4 16 3 18 -9 8 -11 -9 -17 -9 -29 1 -13 11 -14 10 -9
-4 11 -29 -20 -18 -58 22 -45 45 -77 114 -78 165 0 32 3 37 23 37 32 0 102
-52 122 -90 8 -16 17 -30 19 -30 2 0 15 18 30 40 24 37 98 100 117 100 5 0 12
-12 15 -26z m-3332 -220 c22 -57 -9 -164 -66 -224 l-23 -25 -3 23 c-3 22 -4
23 -17 5 -13 -17 -14 -17 -36 2 l-22 20 12 -23 c29 -54 -37 -37 -100 26 -39
39 -49 57 -59 106 -15 75 -6 86 50 61 22 -10 56 -36 75 -57 19 -21 39 -38 44
-38 5 0 15 15 21 34 12 36 80 106 104 106 8 0 17 -7 20 -16z m3076 -20 c21
-20 45 -51 52 -70 6 -19 16 -34 20 -34 4 0 24 17 43 38 19 21 53 47 75 57 56
25 65 14 50 -60 -13 -61 -59 -123 -111 -151 -38 -19 -63 -18 -55 2 5 12 2 15
-10 10 -10 -4 -22 1 -31 11 -8 10 -12 12 -8 6 3 -7 3 -18 0 -23 -23 -36 -105
100 -105 173 0 88 18 97 80 41z m-3032 -213 c7 -21 12 -54 12 -72 0 -38 -38
-127 -63 -148 -15 -12 -17 -11 -17 10 0 22 0 22 -14 3 -13 -17 -17 -17 -38 -5
-22 13 -23 13 -5 -6 24 -27 22 -33 -12 -33 -48 0 -122 58 -153 119 -30 58 -36
101 -15 101 36 0 93 -25 127 -56 41 -37 60 -38 60 -3 0 11 5 30 11 42 16 31
71 87 84 87 7 0 17 -17 23 -39z m2985 0 c20 -22 41 -58 47 -80 6 -23 13 -41
16 -41 3 0 17 12 32 26 30 29 103 64 133 64 52 0 -10 -138 -85 -187 -61 -42
-135 -46 -95 -6 9 9 7 11 -7 7 -15 -4 -23 2 -31 23 l-11 28 -1 -28 c-2 -42
-22 -30 -53 33 -30 58 -36 115 -17 169 14 41 29 39 72 -8z m-2912 -202 c23
-47 27 -110 9 -166 -26 -79 -50 -84 -51 -10 l-1 52 -12 -60 c-18 -92 -23 -96
-97 -73 -71 21 -158 117 -159 176 0 27 96 6 154 -33 44 -30 46 -30 46 -7 0 38
23 94 52 127 16 19 32 35 34 35 2 0 13 -19 25 -41z m2855 -31 c8 -15 15 -45
16 -68 1 -22 5 -40 9 -40 5 0 25 11 45 25 58 39 154 60 154 33 -1 -59 -88
-155 -159 -176 -75 -23 -80 -19 -97 78 -12 63 -12 64 -13 20 -3 -102 -38 -79
-61 39 -8 46 6 118 31 147 10 13 15 12 36 -8 14 -13 31 -35 39 -50z m-2743
-179 c25 -46 28 -62 24 -110 -3 -31 -10 -67 -17 -79 l-12 -23 -13 24 -13 23
-4 -24 c-2 -20 -8 -24 -28 -22 -24 3 -24 3 -6 -11 46 -35 -22 -49 -96 -21 -64
25 -138 102 -138 144 0 18 102 11 149 -10 24 -11 44 -20 46 -20 1 0 5 26 7 58
5 60 41 136 62 129 6 -2 24 -28 39 -58z m2621 9 c16 -32 26 -69 26 -95 0 -24
2 -43 4 -43 2 0 23 9 47 20 52 23 149 28 149 6 0 -21 -41 -76 -80 -108 -43
-34 -143 -59 -162 -40 -8 8 -8 15 3 28 12 16 12 17 -4 11 -14 -5 -20 -2 -24
14 -6 20 -7 21 -19 5 -12 -16 -13 -16 -24 3 -17 34 -24 115 -11 152 14 43 48
99 60 99 5 0 21 -23 35 -52z m-2501 -158 c44 -51 66 -161 44 -215 -8 -20 -9
-20 -23 -1 -14 19 -14 19 -14 -2 0 -16 -6 -22 -22 -23 -17 -1 -19 -2 -5 -6 23
-6 22 -20 -5 -34 -28 -15 -106 -5 -156 20 -42 22 -92 74 -92 96 0 27 89 31
183 9 26 -6 27 -5 17 20 -14 39 -12 79 6 126 19 48 34 50 67 10z m2371 -10
c18 -47 20 -87 6 -126 -10 -25 -9 -26 17 -20 98 23 183 18 183 -11 0 -9 -20
-35 -44 -58 -61 -59 -167 -84 -212 -50 -16 13 -17 16 -4 25 13 8 13 10 -2 10
-12 0 -18 8 -19 23 0 12 -3 16 -6 10 -10 -26 -33 -13 -34 20 -3 100 10 146 54
195 29 32 43 28 61 -18z m-2196 -165 c34 -42 52 -95 52 -154 0 -42 -7 -50 -27
-30 -8 8 -11 6 -10 -7 1 -11 -7 -20 -23 -24 l-25 -6 25 -7 c23 -6 24 -8 9 -22
-26 -27 -118 -31 -170 -8 -46 21 -109 69 -109 84 0 18 109 41 161 34 27 -4 49
-5 49 -2 0 2 -7 22 -16 43 -16 39 -14 98 7 135 13 24 36 13 77 -36z m2036 28
c18 -65 16 -93 -9 -157 -7 -17 -4 -18 43 -11 52 7 162 -16 162 -34 0 -17 -68
-69 -114 -86 -75 -29 -196 -7 -166 30 8 9 6 14 -6 19 -10 4 -14 12 -9 24 5 14
4 15 -6 5 -22 -22 -29 -14 -29 31 0 60 25 125 62 163 35 36 64 42 72 16z
m-1870 -145 c64 -53 117 -198 67 -185 -12 3 -18 -1 -17 -11 0 -9 -10 -19 -24
-22 -25 -7 -21 -11 20 -22 10 -3 6 -10 -15 -24 -20 -13 -51 -20 -99 -22 -65
-3 -75 -1 -118 27 -27 17 -48 35 -48 41 0 18 84 53 135 56 55 3 56 4 30 73
-20 55 -12 121 14 121 9 0 34 -14 55 -32z m1700 -2 c7 -38 1 -76 -21 -118 -7
-15 -13 -31 -13 -34 0 -4 24 -8 52 -9 51 -2 138 -36 138 -54 0 -11 -30 -36
-67 -55 -49 -24 -149 -21 -193 6 -30 19 -32 22 -15 26 43 7 50 15 20 21 -24 6
-30 11 -28 31 1 14 -1 19 -3 13 -3 -7 -13 -13 -21 -13 -13 0 -14 8 -9 41 9 58
40 112 83 148 50 41 69 40 77 -3z m-1509 -95 c40 -23 105 -117 105 -153 0 -28
-8 -34 -25 -20 -6 4 -7 3 -2 -2 12 -17 8 -26 -15 -36 l-23 -9 23 0 c74 -2 -48
-81 -126 -81 -42 0 -142 35 -142 50 0 25 107 79 158 80 38 0 39 6 11 36 -25
27 -50 113 -42 144 6 23 25 21 78 -9z m1319 5 c8 -31 -19 -118 -44 -141 -24
-22 -18 -35 18 -35 46 -1 152 -56 152 -80 0 -15 -100 -50 -142 -50 -80 0 -202
78 -125 81 l22 0 -22 9 c-26 11 -28 20 -10 41 10 12 10 12 -2 2 -23 -20 -31
-16 -31 15 0 53 62 134 125 163 51 24 52 24 59 -5z m-1109 -77 c25 -12 58 -38
74 -58 56 -71 66 -121 18 -92 -22 14 -22 14 -3 -8 11 -11 16 -24 13 -28 -4 -3
-2 -12 4 -19 23 -28 -90 -103 -154 -104 -39 0 -116 20 -124 33 -10 16 58 72
113 92 27 10 51 20 53 21 2 2 -11 20 -28 40 -37 42 -51 73 -51 115 0 36 21 38
85 8z m905 -8 c0 -42 -14 -73 -51 -115 -17 -20 -30 -38 -28 -40 2 -1 26 -11
53 -21 55 -20 123 -76 113 -92 -8 -13 -85 -33 -124 -33 -62 0 -197 94 -155
108 7 2 9 8 6 14 -3 5 5 21 17 36 19 21 19 23 3 9 -24 -20 -44 -22 -44 -4 0
16 51 98 72 115 27 22 92 51 116 52 18 0 22 -5 22 -29z m-637 -58 c41 -29 87
-86 87 -106 0 -5 -9 -7 -21 -4 -17 5 -18 3 -7 -10 10 -13 8 -19 -12 -36 -20
-16 -21 -19 -5 -13 31 12 37 12 42 0 5 -16 -51 -70 -96 -94 -58 -29 -181 -26
-181 5 0 18 97 104 126 111 31 8 30 19 -1 40 -32 21 -75 93 -75 124 0 21 3 22
51 18 34 -4 63 -15 92 -35z m427 20 c0 -32 -42 -103 -71 -120 -39 -23 -37 -36
10 -56 37 -17 111 -87 111 -106 0 -27 -127 -28 -181 -1 -71 37 -123 108 -75
104 13 -2 14 1 5 12 -9 11 -9 17 0 28 10 12 8 13 -8 9 -62 -16 39 108 111 137
13 5 40 9 61 9 28 1 37 -3 37 -16z"/>
<path d="M2441 4205 c-16 -14 -35 -41 -41 -60 -10 -30 -9 -41 7 -72 46 -93
161 -93 205 0 24 48 14 90 -29 127 -44 39 -98 41 -142 5z"/>
<path d="M1813 4113 c-4 -10 -19 -37 -35 -60 -17 -25 -25 -48 -22 -58 5 -11 0
-18 -15 -22 -21 -5 -60 -63 -44 -63 22 -1 170 -28 186 -35 10 -4 17 -3 17 4 0
6 -5 11 -11 11 -6 0 -17 7 -25 15 -8 8 -37 17 -64 21 -28 4 -50 11 -50 17 0 6
13 31 29 56 17 25 34 65 39 89 10 42 7 57 -5 25z"/>
<path d="M1738 4087 c-45 -34 -88 -100 -74 -114 4 -4 17 6 29 22 12 17 41 51
66 78 51 55 41 61 -21 14z"/>
<path d="M1735 3990 c-3 -5 -1 -10 4 -10 6 0 11 5 11 10 0 6 -2 10 -4 10 -3 0
-8 -4 -11 -10z"/>
<path d="M1730 3845 c14 -8 36 -14 50 -14 23 0 23 1 5 9 -19 8 -19 9 2 9 12 1
24 -5 26 -11 3 -8 6 -6 6 5 1 14 -8 17 -56 17 -55 -1 -57 -1 -33 -15z"/>
<path d="M1843 3846 c0 -11 8 -14 25 -11 29 5 42 15 19 15 -8 0 -22 2 -30 5
-8 4 -14 0 -14 -9z"/>
<path d="M3185 4123 c6 -4 11 -23 12 -42 1 -20 14 -52 32 -78 42 -59 40 -69
-14 -78 -29 -4 -43 -10 -39 -17 5 -7 2 -9 -7 -6 -9 3 -26 -3 -40 -14 -18 -14
-19 -17 -4 -10 11 5 48 12 83 16 80 9 92 14 85 33 -5 12 -3 14 7 8 16 -10 13
-5 -53 93 -27 41 -46 77 -42 80 4 4 29 -16 55 -45 38 -41 49 -49 54 -36 8 19
-22 55 -37 46 -6 -3 -7 -1 -3 5 4 6 -5 17 -21 25 -34 17 -82 32 -68 20z"/>
<path d="M3135 3850 l-30 -7 30 -7 c17 -4 35 -9 41 -11 16 -5 97 14 109 26 11
11 -104 11 -150 -1z m92 -6 c-3 -3 -12 -4 -19 -1 -8 3 -5 6 6 6 11 1 17 -2 13
-5z"/>
<path d="M1943 4073 c-17 -8 -41 -25 -54 -39 l-23 -24 55 19 c30 10 80 22 110
25 49 6 52 6 35 -8 -10 -9 -49 -25 -85 -37 -54 -18 -62 -24 -46 -31 15 -6 11
-7 -13 -3 -23 3 -31 1 -26 -6 10 -17 89 -3 131 24 55 35 78 63 61 73 -33 21
-109 25 -145 7z"/>
<path d="M2978 4082 c-37 -3 -55 -21 -20 -20 9 0 41 -7 71 -15 30 -8 61 -12
69 -9 9 3 13 1 9 -5 -4 -6 3 -13 14 -16 20 -5 20 -5 3 15 -35 38 -85 55 -146
50z"/>
<path d="M2910 4063 c-1 -34 118 -103 178 -103 51 0 25 21 -63 50 -52 17 -99
39 -105 48 -5 9 -10 12 -10 5z m190 -89 c0 -2 -11 -4 -25 -4 -14 0 -25 4 -25
9 0 4 11 6 25 3 14 -2 25 -6 25 -8z"/>
<path d="M1530 3979 c-33 -26 -50 -46 -46 -55 3 -8 2 -12 -3 -9 -13 8 -25 -35
-13 -47 6 -6 17 6 32 35 26 52 72 105 77 90 2 -6 -14 -48 -37 -93 -57 -113
-54 -117 68 -117 l97 0 -39 18 c-22 9 -53 15 -70 13 -52 -8 -61 7 -36 56 12
23 19 48 16 56 -3 9 -1 12 4 9 6 -4 10 12 10 39 0 25 -2 46 -4 46 -2 0 -27
-18 -56 -41z m3 -144 c-3 -9 -8 -14 -10 -11 -3 3 -2 9 2 15 9 16 15 13 8 -4z"/>
<path d="M1452 3840 c0 -14 2 -19 5 -12 2 6 2 18 0 25 -3 6 -5 1 -5 -13z"/>
<path d="M1711 3773 c-1 -7 -42 -16 -108 -24 -106 -12 -112 -19 -28 -32 30 -5
35 -4 20 3 -15 7 -9 9 25 5 32 -4 39 -2 25 4 -17 8 -14 10 15 10 42 1 64 14
57 32 -3 8 -6 9 -6 2z"/>
<path d="M3420 3978 c0 -24 11 -66 24 -95 26 -55 25 -89 -3 -96 -9 -3 0 -5 20
-6 34 -1 36 1 32 27 l-4 27 15 -30 c14 -26 15 -26 10 -5 -4 14 -22 55 -40 92
-34 67 -42 98 -26 98 5 0 15 -11 22 -25 8 -14 19 -24 26 -21 8 3 11 -1 8 -9
-8 -19 15 -57 28 -49 7 5 9 2 5 -9 -3 -9 -2 -19 3 -22 6 -4 10 -15 10 -26 0
-10 5 -19 11 -19 14 0 3 53 -22 101 -10 20 -35 50 -56 66 -63 49 -63 49 -63 1z
m105 -58 c3 -5 1 -10 -4 -10 -6 0 -11 5 -11 10 0 6 2 10 4 10 3 0 8 -4 11 -10z"/>
<path d="M3345 3800 c-40 -18 -40 -18 -10 -19 34 -1 59 12 54 27 -3 7 -19 4
-44 -8z"/>
<path d="M3405 3800 c4 -6 11 -8 16 -5 14 9 11 15 -7 15 -8 0 -12 -5 -9 -10z"/>
<path d="M3290 3760 c0 -13 59 -30 65 -19 4 5 0 11 -7 13 -35 11 -58 13 -58 6z"/>
<path d="M3367 3737 c-4 -12 7 -14 64 -13 37 1 72 5 76 9 4 5 -8 8 -27 7 -19
0 -51 3 -71 6 -27 4 -38 2 -42 -9z"/>
<path d="M3629 3837 c-2 -27 1 -67 8 -90 22 -74 22 -74 -62 -73 -59 1 -78 -3
-92 -17 -17 -18 -17 -19 2 -34 38 -29 85 -43 142 -42 l58 0 -37 14 c-20 8 -59
17 -85 21 -57 8 -89 22 -76 35 5 5 35 4 73 -2 35 -5 76 -7 90 -4 16 4 20 3 12
-3 -10 -7 -7 -11 12 -14 33 -7 33 -1 -3 114 -16 51 -31 104 -33 118 -3 15 -6
7 -9 -23z m45 -143 c3 -8 2 -12 -4 -9 -6 3 -10 10 -10 16 0 14 7 11 14 -7z
m-87 -30 c-3 -3 -12 -4 -19 -1 -8 3 -5 6 6 6 11 1 17 -2 13 -5z m-30 -60 c-3
-3 -12 -4 -19 -1 -8 3 -5 6 6 6 11 1 17 -2 13 -5z"/>
<path d="M3650 3869 c0 -2 13 -29 28 -59 23 -45 31 -53 41 -43 8 9 9 18 2 30
-11 18 -71 80 -71 72z"/>
<path d="M3737 3710 c3 -30 7 -57 9 -59 7 -8 2 64 -6 89 -6 16 -7 6 -3 -30z"/>
<path d="M1372 3856 c-1 -10 -15 -61 -32 -113 -16 -51 -30 -101 -29 -111 1
-11 4 -8 9 8 6 19 8 20 9 6 1 -14 6 -17 24 -13 12 3 47 9 77 13 30 4 61 10 69
14 23 12 -42 22 -94 15 -42 -7 -45 -6 -45 15 0 12 5 30 10 41 6 11 9 47 7 82
-2 34 -4 53 -5 43z m-5 -88 c-3 -8 -6 -5 -6 6 -1 11 2 17 5 13 3 -3 4 -12 1
-19z m-20 -70 c-3 -8 -6 -5 -6 6 -1 11 2 17 5 13 3 -3 4 -12 1 -19z m126 -35
c-7 -2 -21 -2 -30 0 -10 3 -4 5 12 5 17 0 24 -2 18 -5z"/>
<path d="M1317 3822 c-38 -39 -57 -84 -57 -134 0 -16 4 -28 9 -28 4 0 6 10 4
23 -2 12 1 33 6 47 10 23 11 22 6 -10 -4 -26 1 -18 18 27 14 34 32 74 41 88
23 34 16 32 -27 -13z"/>
<path d="M1526 3645 c4 -9 0 -15 -10 -15 -9 0 -16 -4 -16 -10 0 -14 13 -13 28
2 14 14 16 38 2 38 -5 0 -7 -7 -4 -15z"/>
<path d="M1380 3602 l-65 -17 61 -3 c62 -3 114 10 114 28 0 14 -33 11 -110 -8z
m97 2 c-3 -3 -12 -4 -19 -1 -8 3 -5 6 6 6 11 1 17 -2 13 -5z m-40 -10 c-3 -3
-12 -4 -19 -1 -8 3 -5 6 6 6 11 1 17 -2 13 -5z"/>
<path d="M2412 3760 c-35 -25 -42 -36 -42 -64 0 -27 7 -40 33 -60 28 -23 31
-28 20 -46 -7 -11 -13 -30 -14 -42 0 -22 -1 -22 -9 -3 -5 11 -9 14 -9 7 -1 -7
5 -21 12 -33 10 -17 9 -22 -5 -33 -10 -7 -18 -19 -18 -27 0 -11 -2 -11 -11 1
-8 12 -10 9 -6 -12 2 -15 1 -31 -2 -36 -3 -5 -72 -12 -152 -16 -130 -7 -148
-6 -163 9 -11 11 -16 29 -14 49 3 29 6 31 48 36 34 4 40 7 25 13 -32 11 -78
-2 -102 -29 -26 -28 -28 -42 -12 -77 22 -49 54 -57 218 -57 177 0 175 1 141
-91 -13 -33 -20 -62 -17 -65 2 -3 22 2 43 11 73 30 81 4 29 -90 l-36 -63 -19
-383 c-11 -211 -22 -409 -24 -439 -9 -96 -20 -333 -20 -400 1 -58 12 -91 101
-313 l99 -248 103 258 103 258 -6 120 c-4 66 -11 197 -16 290 -20 345 -30 524
-36 670 -7 170 -14 207 -49 259 -29 43 -41 81 -26 90 5 4 37 -3 70 -14 48 -16
86 -20 190 -20 86 0 132 4 137 11 5 9 -15 10 -75 7 -44 -3 -81 -1 -81 4 0 4
-15 8 -32 7 -28 0 -30 -2 -13 -9 15 -6 8 -9 -28 -9 -30 -1 -46 3 -42 9 3 6 0
10 -8 10 -16 0 -61 116 -51 131 3 5 73 9 156 9 163 0 195 8 217 57 17 37 13
53 -19 83 -25 23 -37 28 -67 24 -51 -6 -54 -14 -6 -14 36 0 42 -3 51 -30 9
-24 7 -33 -6 -51 -17 -20 -22 -21 -166 -14 -145 8 -148 8 -157 33 -5 14 -7 27
-4 30 3 3 -4 12 -16 20 -15 11 -19 21 -15 47 4 24 0 37 -14 50 -27 25 -26 31
16 70 31 29 35 39 29 62 -9 37 -24 53 -62 70 -57 23 -125 17 -171 -17z"/>
<path d="M2130 3492 c0 -4 4 -13 9 -20 7 -11 9 -11 14 1 3 9 -1 18 -9 21 -8 3
-14 2 -14 -2z"/>
<path d="M1560 3200 c0 -5 5 -10 10 -10 6 0 10 5 10 10 0 6 -4 10 -10 10 -5 0
-10 -4 -10 -10z"/>
<path d="M3430 3184 c0 -15 -12 -38 -29 -55 -25 -25 -37 -29 -84 -29 -46 0
-60 5 -86 27 -17 15 -31 33 -31 40 0 15 -16 17 -25 3 -3 -5 -2 -10 4 -10 5 0
12 -13 16 -30 8 -35 43 -66 86 -75 17 -4 33 -13 36 -21 3 -8 -22 -74 -55 -147
-66 -145 -76 -168 -198 -439 -46 -103 -96 -213 -113 -246 l-30 -59 32 -55 c40
-71 120 -158 145 -158 6 0 12 -5 14 -11 6 -18 140 -58 199 -59 148 -1 292 90
371 237 l28 51 -19 43 c-11 24 -63 148 -116 274 -54 127 -104 246 -112 265 -8
19 -26 58 -39 87 -13 28 -24 55 -24 58 0 4 -7 23 -16 43 -9 21 -22 52 -30 70
-20 48 -18 58 20 80 47 28 99 142 66 142 -5 0 -10 -12 -10 -26z m-32 -414 c30
-69 101 -230 158 -359 57 -129 104 -245 104 -258 l0 -23 -340 0 -340 0 0 24
c0 29 14 62 129 311 16 33 66 145 111 248 104 234 101 234 178 57z"/>
<path d="M3312 2873 c-25 -46 -322 -713 -322 -723 0 -12 646 -14 654 -2 4 7
-305 726 -318 739 -2 3 -9 -4 -14 -14z"/>
<path d="M2207 3194 c-3 -3 -65 -5 -136 -5 -72 1 -131 -2 -131 -7 0 -5 -29 -7
-64 -5 -63 3 -64 2 -76 -28 -16 -38 -37 -49 -95 -49 -57 0 -97 20 -114 57 -19
40 -25 12 -7 -31 9 -21 30 -45 51 -57 21 -13 35 -29 35 -41 0 -11 -79 -205
-176 -431 -97 -227 -179 -421 -181 -433 -3 -12 6 -43 20 -71 92 -180 291 -270
475 -214 39 12 77 28 86 36 8 8 17 15 21 15 8 0 32 19 69 56 40 40 47 49 79
105 l27 46 -46 99 c-25 54 -91 200 -146 324 -55 124 -125 278 -155 343 -54
119 -59 147 -26 147 32 0 84 40 99 75 l14 35 101 0 c55 0 98 3 96 8 -3 4 51 5
120 4 83 -3 123 0 119 7 -4 5 7 11 26 14 21 2 13 4 -23 5 -31 1 -58 -1 -62 -4z
m-200 -20 c-3 -3 -12 -4 -19 -1 -8 3 -5 6 6 6 11 1 17 -2 13 -5z m-211 -470
c46 -104 93 -207 103 -229 68 -141 141 -311 141 -326 0 -18 -15 -19 -345 -19
-394 0 -366 -8 -321 92 13 29 83 190 156 358 73 168 137 311 143 317 19 26 40
-7 123 -193z"/>
<path d="M1531 2537 c-85 -193 -157 -362 -159 -374 l-4 -23 325 0 c179 0 328
3 330 8 4 8 -325 742 -333 742 -3 0 -74 -159 -159 -353z"/>
<path d="M3015 3181 c19 -8 18 -9 -5 -13 -14 -3 16 -5 65 -5 50 0 73 2 53 4
-21 2 -38 8 -38 14 0 5 -21 9 -47 8 -35 0 -42 -3 -28 -8z m52 -7 c-3 -3 -12
-4 -19 -1 -8 3 -5 6 6 6 11 1 17 -2 13 -5z"/>
<path d="M1136 3648 c-21 -31 -37 -70 -39 -93 -3 -22 -2 -31 0 -20 10 43 20
34 12 -11 -5 -26 -7 -49 -5 -51 5 -6 12 16 26 89 6 31 20 74 31 95 l20 38 -5
-57 c-4 -32 -9 -82 -12 -112 -6 -48 -5 -54 15 -59 11 -3 21 -2 21 3 0 4 12 8
26 8 15 0 29 3 33 8 3 5 24 11 46 12 45 4 72 21 37 23 -12 1 -28 2 -34 3 -7 1
-32 -4 -56 -12 -57 -19 -67 -9 -51 52 9 36 9 56 -1 91 -7 25 -16 45 -21 45 -5
0 -24 -24 -43 -52z"/>
<path d="M1364 3493 c-6 -10 -29 -23 -50 -30 -22 -6 -59 -21 -84 -32 l-45 -20
40 0 c37 0 139 37 105 39 -8 0 0 7 18 15 17 8 32 21 32 30 0 19 -3 19 -16 -2z
m-54 -47 c0 -2 -7 -7 -16 -10 -8 -3 -12 -2 -9 4 6 10 25 14 25 6z"/>
<path d="M3855 3660 c4 -14 15 -60 25 -103 21 -91 30 -107 24 -45 -3 34 -2 38
5 18 13 -37 13 -9 -1 49 -6 27 -22 62 -35 78 l-24 28 6 -25z m43 -90 c0 -9 -3
-7 -8 5 -5 11 -8 29 -8 40 0 16 2 15 8 -5 4 -14 8 -32 8 -40z"/>
<path d="M3806 3635 c-4 -19 -1 -53 5 -75 16 -51 5 -63 -41 -50 -48 14 -110
13 -110 -2 0 -6 3 -9 6 -5 7 7 92 -18 150 -43 l41 -18 -3 37 c-8 84 -27 191
-34 191 -4 0 -11 -16 -14 -35z"/>
<path d="M3628 3504 c-7 -7 40 -54 71 -72 13 -8 49 -16 80 -18 l56 -5 -35 14
c-19 8 -59 24 -89 35 -30 11 -60 27 -66 36 -7 9 -14 13 -17 10z"/>
<path d="M1006 3495 c-3 -9 -2 -13 4 -10 12 8 12 11 16 -110 2 -55 5 -105 6
-112 1 -7 31 3 77 26 42 21 87 43 101 49 25 10 24 11 -9 11 -19 1 -53 -9 -77
-20 -57 -29 -78 -20 -71 28 7 38 -7 104 -29 136 -10 16 -12 16 -18 2z"/>
<path d="M979 3454 c-16 -20 -25 -145 -12 -169 7 -12 13 9 21 81 6 54 10 100
8 101 -2 2 -9 -4 -17 -13z"/>
<path d="M1183 3291 c-60 -28 -122 -71 -101 -71 28 0 98 31 95 42 -1 6 4 13
12 16 9 3 11 0 6 -8 -5 -9 -4 -11 4 -6 6 4 9 12 6 17 -4 5 1 9 9 9 9 0 16 5
16 10 0 13 3 13 -47 -9z"/>
<path d="M3974 3468 c-12 -22 -18 -53 -17 -95 1 -72 -4 -75 -67 -43 -40 21
-95 26 -118 12 -8 -6 -3 -9 16 -9 16 0 66 -18 110 -41 l80 -41 5 72 c3 40 5
90 4 111 -1 22 3 41 9 43 11 4 36 -126 35 -182 -1 -40 16 -15 24 36 7 40 -10
119 -25 119 -6 0 -10 6 -10 14 0 7 -6 19 -14 25 -12 10 -18 6 -32 -21z"/>
<path d="M3780 3302 c0 -14 41 -43 52 -36 6 4 8 3 4 -4 -3 -6 12 -17 38 -27
75 -29 71 -12 -7 33 -77 43 -87 47 -87 34z"/>
<path d="M861 3247 c-26 -54 -26 -121 -1 -167 17 -31 19 -32 20 -12 0 13 -7
31 -16 39 -9 9 -11 19 -6 22 5 3 13 37 17 75 4 39 11 64 16 59 4 -4 14 -53 20
-108 7 -55 16 -104 20 -110 6 -5 9 -4 9 4 0 7 4 10 9 6 6 -3 14 3 20 12 6 10
11 14 11 9 0 -5 8 -2 18 7 10 9 43 30 73 47 50 28 51 29 19 23 -37 -6 -60 -15
-99 -38 -32 -18 -38 -13 -46 38 -7 38 -49 137 -59 137 -2 0 -14 -19 -25 -43z"/>
<path d="M1081 3101 c-18 -16 -29 -31 -25 -33 5 -3 3 -3 -5 -1 -7 2 -29 -11
-49 -28 -31 -27 -32 -30 -11 -24 39 11 95 51 119 84 27 39 15 40 -29 2z"/>
<path d="M4124 3273 c3 -10 8 -34 10 -53 17 -129 18 -135 27 -115 14 36 9 95
-12 140 -21 45 -35 60 -25 28z"/>
<path d="M4091 3242 c-14 -26 -31 -104 -25 -114 3 -4 11 -5 18 -2 9 3 17 29
21 65 8 65 3 82 -14 51z"/>
<path d="M3945 3125 c33 -20 74 -47 91 -60 23 -18 34 -21 43 -12 17 17 14 64
-4 64 -8 0 -15 -4 -15 -9 0 -16 -33 -7 -62 17 -16 14 -37 25 -46 25 -9 0 -28
3 -42 6 -14 4 2 -10 35 -31z m135 -45 c0 -3 -4 -11 -8 -18 -7 -10 -13 -8 -26
7 -17 18 -16 19 8 17 14 0 26 -3 26 -6z"/>
<path d="M3885 3119 c22 -36 72 -80 108 -94 22 -9 41 -14 43 -12 4 3 -111 92
-145 112 -10 6 -12 4 -6 -6z"/>
<path d="M770 3016 c-22 -67 -10 -134 33 -191 13 -17 12 -6 -4 60 -21 88 -24
145 -9 145 5 0 12 -12 16 -27 12 -54 56 -183 64 -188 5 -3 16 7 25 22 10 16
44 48 77 72 32 24 57 45 55 48 -8 8 -82 -32 -100 -54 -32 -40 -67 -25 -67 28
0 11 -4 18 -9 15 -5 -4 -7 2 -5 12 3 10 -9 33 -29 57 l-34 39 -13 -38z m17
-138 c-3 -8 -6 -5 -6 6 -1 11 2 17 5 13 3 -3 4 -12 1 -19z"/>
<path d="M970 2856 c-47 -50 -64 -72 -45 -61 44 27 85 67 85 82 0 8 4 12 9 9
4 -3 13 6 20 21 6 14 10 26 9 27 -2 1 -37 -34 -78 -78z"/>
<path d="M4197 3017 c-25 -30 -38 -58 -51 -119 -8 -37 -43 -38 -56 -3 -6 17
-26 33 -56 46 -26 11 -49 18 -51 16 -2 -2 13 -17 34 -33 21 -15 40 -32 41 -36
2 -4 10 -8 18 -8 9 0 13 -4 10 -9 -3 -5 10 -8 30 -7 30 1 34 -1 30 -18 -3 -13
-2 -16 6 -8 6 6 11 24 12 40 1 17 4 28 8 26 3 -2 12 20 18 49 7 28 19 60 28
70 8 9 13 19 11 21 -3 3 -17 -9 -32 -27z"/>
<path d="M4222 2948 c-6 -39 -8 -77 -5 -86 4 -10 2 -13 -5 -8 -7 4 -12 3 -12
-3 0 -5 -3 -18 -6 -28 -10 -28 11 -4 35 40 14 25 21 55 21 92 0 79 -15 75 -28
-7z m15 -20 c-3 -8 -6 -5 -6 6 -1 11 2 17 5 13 3 -3 4 -12 1 -19z m-4 -33 c-3
-9 -8 -14 -10 -11 -3 3 -2 9 2 15 9 16 15 13 8 -4z"/>
<path d="M3960 2936 c0 -31 65 -105 125 -140 19 -12 2 10 -45 60 -41 43 -76
80 -77 83 -2 2 -3 1 -3 -3z"/>
<path d="M715 2790 c-14 -22 -6 -109 13 -146 21 -42 69 -93 56 -61 -3 9 -10
17 -16 17 -5 0 -7 4 -4 9 9 14 -5 42 -17 34 -6 -4 -8 0 -4 10 3 9 0 35 -8 58
-8 23 -15 51 -15 62 0 35 22 2 65 -97 37 -85 40 -88 53 -67 8 11 21 21 28 21
8 0 13 4 11 8 -2 9 93 101 106 102 15 0 5 -23 -32 -74 -22 -30 -37 -56 -34
-60 4 -3 1 -6 -5 -6 -6 0 -16 -10 -23 -22 -11 -21 -11 -21 20 2 18 12 43 39
57 60 28 42 43 110 25 110 -25 0 -87 -39 -109 -69 -30 -41 -49 -39 -70 7 -36
77 -82 126 -97 102z m17 -105 c3 -13 1 -22 -3 -19 -9 5 -13 44 -5 44 2 0 6
-11 8 -25z m234 -23 c-17 -16 -18 -16 -5 5 7 12 15 20 18 17 3 -2 -3 -12 -13
-22z"/>
<path d="M4290 2775 c0 -13 -11 -52 -24 -87 -40 -109 -39 -105 -27 -88 6 8 11
11 11 6 0 -5 10 4 22 19 16 20 22 45 26 101 2 41 2 74 -2 74 -3 0 -6 -11 -6
-25z m-3 -87 c-3 -8 -6 -5 -6 6 -1 11 2 17 5 13 3 -3 4 -12 1 -19z"/>
<path d="M4236 2758 c-13 -18 -31 -50 -40 -70 -18 -46 -38 -48 -66 -8 -23 32
-71 62 -107 66 -21 2 -21 1 -8 -41 16 -54 46 -97 87 -127 36 -25 33 -19 -34
74 -46 65 -57 88 -40 88 10 0 71 -64 105 -111 15 -20 33 -36 41 -36 8 0 33 42
59 99 46 100 48 124 3 66z"/>
<path d="M693 2493 c3 -66 35 -126 83 -158 l23 -15 -20 35 c-12 19 -26 32 -31
29 -6 -4 -8 -1 -6 7 3 8 -3 31 -14 51 -10 21 -23 55 -28 75 -9 35 -9 32 -7
-24z"/>
<path d="M710 2536 c0 -15 74 -115 81 -110 5 3 7 -1 4 -8 -7 -18 30 -62 46
-56 8 3 23 23 34 44 10 22 35 59 54 83 22 28 28 40 15 33 -30 -16 -62 -50 -79
-82 -9 -17 -20 -30 -25 -30 -13 0 -38 28 -55 60 -13 26 -75 80 -75 66z m143
-151 c-3 -9 -8 -14 -10 -11 -3 3 -2 9 2 15 9 16 15 13 8 -4z"/>
<path d="M971 2497 c0 -21 -5 -36 -10 -33 -5 3 -26 -27 -46 -67 l-36 -72 34
34 c40 38 70 108 64 148 -3 23 -4 21 -6 -10z"/>
<path d="M4312 2527 c-1 -15 -13 -49 -26 -75 -13 -26 -21 -53 -19 -60 3 -7 0
-11 -5 -10 -6 2 -10 -1 -10 -6 0 -5 -6 -13 -14 -17 -10 -7 -9 -9 3 -9 9 0 24
11 33 25 19 29 20 39 4 29 -7 -4 -8 -3 -4 5 4 6 12 9 17 6 15 -10 30 45 26 94
-2 25 -4 33 -5 18z"/>
<path d="M4030 2504 c0 -47 31 -112 71 -149 l32 -30 -47 91 c-49 95 -52 104
-36 104 12 0 90 -114 90 -132 0 -10 2 -10 9 1 6 9 11 10 15 2 4 -6 5 -15 2
-20 -4 -5 1 -8 9 -7 17 2 130 164 122 173 -3 2 -25 -15 -48 -38 -24 -24 -38
-44 -31 -47 18 -6 2 -32 -20 -32 -10 0 -16 -4 -13 -10 13 -20 -11 -9 -25 12
-30 45 -91 106 -110 111 -17 4 -20 0 -20 -29z"/>
<path d="M937 2286 c-31 -29 -60 -83 -53 -101 10 -26 -39 -1 -80 41 -23 23
-56 49 -73 58 l-31 17 0 -31 c0 -60 61 -160 97 -160 7 0 13 -4 13 -10 0 -5 5
-10 11 -10 5 0 -2 16 -17 35 -14 19 -30 33 -34 30 -5 -3 -11 -1 -15 5 -3 5 -1
10 6 10 8 0 8 4 -1 15 -7 8 -17 12 -23 8 -6 -3 -7 -1 -3 5 4 6 -1 23 -10 36
-35 54 -5 46 46 -12 29 -34 58 -58 63 -55 6 3 7 2 4 -4 -4 -6 4 -20 17 -32
l23 -21 12 40 c6 22 11 43 11 46 -1 4 2 10 7 13 9 6 64 101 59 101 -2 0 -15
-11 -29 -24z"/>
<path d="M952 2203 c-27 -84 -29 -93 -11 -74 11 12 17 26 13 33 -5 7 -3 8 6 3
10 -6 12 -3 8 13 -4 12 -3 20 1 17 11 -6 31 40 31 70 0 52 -18 29 -48 -62z"/>
<path d="M4020 2309 c0 -5 5 -7 10 -4 6 3 10 8 10 11 0 2 -4 4 -10 4 -5 0 -10
-5 -10 -11z"/>
<path d="M4050 2307 c0 -14 44 -97 52 -97 4 0 5 -7 2 -15 -4 -8 1 -17 9 -21 9
-3 13 -12 11 -19 -3 -8 -2 -21 3 -30 10 -16 21 -6 132 120 45 51 54 28 12 -32
-17 -24 -28 -49 -25 -55 4 -7 2 -8 -4 -4 -6 3 -16 -3 -22 -15 -20 -37 0 -35
35 3 32 35 55 90 55 135 l0 22 -45 -26 c-25 -14 -57 -40 -71 -59 -33 -43 -60
-44 -69 -4 -6 26 -75 115 -75 97z"/>
<path d="M4010 2274 c0 -31 21 -85 30 -79 4 3 6 -3 3 -13 -2 -11 3 -26 11 -35
9 -8 16 -20 16 -26 0 -6 4 -11 9 -11 12 0 -37 150 -55 170 -12 12 -14 12 -14
-6z"/>
<path d="M4185 2100 c-3 -5 -1 -10 4 -10 6 0 11 5 11 10 0 6 -2 10 -4 10 -3 0
-8 -4 -11 -10z"/>
<path d="M1024 2096 c4 -10 2 -35 -3 -55 -11 -41 -29 -151 -25 -151 1 0 10 15
19 33 20 39 36 109 24 101 -5 -3 -6 8 -3 25 3 16 1 37 -6 48 -11 17 -11 17 -6
-1z m0 -130 c-3 -15 -8 -25 -11 -23 -2 3 -1 17 3 31 3 15 8 25 11 23 2 -3 1
-17 -3 -31z"/>
<path d="M982 2074 c-18 -20 -42 -79 -42 -104 0 -30 -36 -25 -68 10 -15 17
-50 39 -79 50 l-51 19 8 -27 c19 -65 63 -132 87 -132 6 0 16 -7 23 -15 7 -8
19 -15 27 -15 8 0 -14 30 -48 66 -35 36 -68 72 -72 80 -10 18 0 34 11 18 15
-21 175 -148 165 -130 -6 10 -8 28 -5 40 6 20 6 20 14 -4 5 -17 6 -11 3 20 -2
25 -1 36 2 25 4 -14 11 -2 24 44 10 36 17 66 16 67 -1 1 -8 -4 -15 -12z"/>
<path d="M3980 2100 c0 -5 5 -10 11 -10 5 0 7 5 4 10 -3 6 -8 10 -11 10 -2 0
-4 -4 -4 -10z"/>
<path d="M4012 2080 c3 -8 11 -41 18 -73 8 -35 16 -53 21 -45 4 7 8 -6 7 -30
0 -24 1 -45 4 -47 2 -2 41 28 86 67 46 39 81 72 78 75 -10 10 -43 -8 -77 -42
-35 -35 -67 -45 -73 -22 -21 72 -32 99 -49 114 -16 14 -19 15 -15 3z"/>
<path d="M3967 2059 c-7 -28 3 -80 14 -73 5 3 6 -1 4 -9 -3 -7 1 -29 9 -48
l15 -34 0 30 c1 31 -23 142 -32 151 -2 3 -7 -5 -10 -17z"/>
<path d="M4257 2043 c-4 -3 -7 -14 -7 -23 0 -9 -20 -36 -45 -60 -24 -24 -41
-48 -38 -53 3 -6 2 -7 -4 -4 -5 4 -20 -5 -31 -18 -12 -14 -27 -25 -34 -25 -6
0 -9 -3 -6 -6 10 -9 72 22 103 52 31 29 59 81 68 122 5 23 4 26 -6 15z"/>
<path d="M1096 1832 c2 -149 6 -164 23 -76 10 49 1 118 -16 135 -4 4 -8 -22
-7 -59z"/>
<path d="M1050 1855 c-7 -9 -15 -38 -18 -66 -2 -27 -9 -52 -14 -55 -5 -3 -31
9 -58 26 -59 38 -137 54 -127 26 4 -10 7 -22 7 -26 0 -16 62 -81 93 -97 44
-22 87 -33 87 -22 0 5 -9 9 -20 9 -11 0 -20 4 -20 9 0 4 -19 21 -41 36 -48 31
-103 85 -95 92 4 5 74 -35 185 -106 l24 -15 -6 69 c-3 39 -3 59 2 45 6 -21 8
-16 14 29 7 62 5 68 -13 46z m-13 -152 c-3 -10 -5 -4 -5 12 0 17 2 24 5 18 2
-7 2 -21 0 -30z"/>
<path d="M1027 1659 c7 -7 15 -10 18 -7 3 3 -2 9 -12 12 -14 6 -15 5 -6 -5z"/>
<path d="M3895 1858 c-15 -48 -15 -59 -2 -113 l15 -60 2 45 c3 71 5 180 3 180
-1 0 -9 -24 -18 -52z m2 -60 c-3 -7 -5 -2 -5 12 0 14 2 19 5 13 2 -7 2 -19 0
-25z"/>
<path d="M3933 1876 c3 -7 9 -35 13 -62 7 -42 9 -46 15 -24 4 14 5 -8 2 -49
l-6 -75 39 24 c94 57 145 92 142 95 -9 9 -70 -13 -93 -33 -41 -36 -59 -26 -66
36 -4 29 -14 63 -23 77 -18 27 -31 34 -23 11z"/>
<path d="M4103 1723 c-33 -27 -73 -58 -89 -70 l-29 -22 33 9 c19 5 47 17 64
27 33 19 95 90 86 98 -2 3 -32 -16 -65 -42z"/>
<path d="M1207 1653 c3 -27 8 -73 12 -103 l7 -55 13 42 c6 23 9 55 5 70 -6 28
-33 93 -38 93 -1 0 -1 -21 1 -47z m30 -75 c-3 -8 -6 -5 -6 6 -1 11 2 17 5 13
3 -3 4 -12 1 -19z"/>
<path d="M1159 1660 c-11 -23 -15 -50 -12 -79 l4 -43 -33 7 c-18 3 -45 7 -60
7 -15 1 -25 4 -23 8 5 9 -29 20 -62 20 -13 0 -23 -4 -23 -10 0 -5 7 -7 15 -4
8 4 21 1 28 -4 20 -17 179 -83 185 -77 3 3 -1 5 -9 5 -11 0 -11 2 -1 8 9 6 12
34 10 103 l-3 94 -16 -35z"/>
<path d="M968 1534 c21 -40 100 -94 137 -94 30 0 14 20 -37 46 -29 15 -66 36
-82 47 -27 19 -28 19 -18 1z"/>
<path d="M3791 1674 c-6 -14 -8 -30 -5 -36 4 -7 2 -8 -4 -4 -14 8 -29 -64 -15
-73 6 -3 9 -14 7 -23 -1 -10 1 -20 5 -22 8 -5 37 172 29 179 -3 3 -10 -7 -17
-21z m-14 -96 c-3 -8 -6 -5 -6 6 -1 11 2 17 5 13 3 -3 4 -12 1 -19z"/>
<path d="M3833 1610 c0 -65 2 -84 7 -60 l7 35 2 -37 c0 -23 6 -38 14 -38 8 0
7 -4 -3 -11 -27 -19 31 2 95 34 33 16 74 33 90 37 30 8 30 8 -7 9 -21 1 -38
-4 -38 -10 0 -6 -9 -8 -22 -4 -15 4 -18 3 -11 -2 9 -6 -1 -16 -32 -31 -52 -25
-69 -28 -41 -7 11 8 15 15 9 15 -7 0 -15 -5 -18 -10 -14 -22 -24 3 -19 48 3
34 -1 58 -14 87 l-20 40 1 -95z"/>
<path d="M4025 1534 c-11 -8 -19 -20 -17 -25 1 -6 -2 -8 -7 -4 -6 3 -36 -8
-68 -24 -45 -23 -54 -31 -40 -36 32 -13 123 39 148 86 12 23 10 23 -16 3z
m-85 -68 c0 -3 -4 -8 -10 -11 -5 -3 -10 -1 -10 4 0 6 5 11 10 11 6 0 10 -2 10
-4z"/>
<path d="M1327 1525 c5 -11 16 -49 23 -85 12 -55 15 -61 22 -40 6 20 7 18 4
-11 -2 -20 0 -42 5 -50 10 -17 12 52 2 89 -4 18 -8 21 -15 10 -7 -9 -8 -4 -3
15 4 19 2 26 -5 22 -6 -4 -10 4 -10 18 0 14 -7 31 -17 38 -15 13 -15 12 -6 -6z"/>
<path d="M1295 1487 c-4 -21 -4 -61 -1 -88 l7 -50 -41 3 c-22 1 -40 6 -40 10
0 4 -24 8 -52 7 l-53 -1 60 -20 c33 -10 85 -25 116 -32 l56 -13 -5 25 c-5 24
-6 25 -13 7 -5 -13 -8 -15 -8 -5 -1 8 -4 26 -6 40 -5 22 -4 22 4 5 13 -27 12
-5 -3 80 -13 69 -13 70 -21 32z m12 -79 c-3 -7 -5 -2 -5 12 0 14 2 19 5 13 2
-7 2 -19 0 -25z"/>
<path d="M1135 1322 c16 -18 35 -30 43 -27 7 2 10 0 7 -5 -9 -15 40 -30 98
-30 l52 1 -85 28 c-47 15 -99 36 -115 46 l-30 19 30 -32z"/>
<path d="M3700 1495 c0 -16 -9 -67 -18 -111 l-18 -81 55 13 c31 7 83 22 116
33 l60 20 -55 -4 c-30 -2 -72 -7 -93 -11 l-37 -6 6 69 c4 45 3 77 -4 89 -10
17 -11 16 -12 -11z m7 -77 c-3 -7 -5 -2 -5 12 0 14 2 19 5 13 2 -7 2 -19 0
-25z m-10 -50 c-3 -7 -5 -2 -5 12 0 14 2 19 5 13 2 -7 2 -19 0 -25z m8 -40 c6
-4 2 -8 -7 -8 -10 0 -18 7 -18 17 0 9 3 12 8 7 4 -5 12 -12 17 -16z m52 6 c-3
-3 -12 -4 -19 -1 -8 3 -5 6 6 6 11 1 17 -2 13 -5z"/>
<path d="M3659 1505 c-3 -5 -6 -21 -7 -35 -2 -31 -20 -90 -21 -70 -1 8 3 30 8
48 6 18 6 30 1 27 -12 -7 -22 -81 -18 -125 3 -31 6 -24 26 48 20 73 27 136 11
107z"/>
<path d="M3881 1343 c-13 -13 -49 -31 -78 -40 -43 -14 -51 -19 -36 -25 13 -6
10 -7 -12 -5 -16 3 -41 1 -55 -3 -19 -6 -13 -8 28 -9 29 -1 67 5 85 13 36 15
101 72 95 83 -1 5 -14 -2 -27 -14z"/>
<path d="M1480 1374 c0 -6 4 -14 8 -19 5 -6 20 -37 32 -70 13 -33 30 -71 37
-85 l13 -25 0 28 c0 18 -4 26 -11 21 -7 -4 -9 0 -5 13 9 28 -3 60 -16 41 -7
-10 -8 -8 -7 7 2 35 -1 46 -11 40 -5 -3 -10 0 -10 7 -1 15 -30 57 -30 42z"/>
<path d="M1460 1350 c-9 -19 -5 -72 8 -108 13 -37 13 -45 2 -52 -8 -5 -19 -5
-26 1 -23 19 -132 3 -113 -16 2 -1 44 -6 93 -10 l88 -8 -12 22 c-6 12 -9 27
-6 34 2 7 5 5 5 -5 1 -9 6 -20 11 -23 6 -4 4 11 -4 32 -8 21 -21 61 -29 88 -8
28 -16 48 -17 45z"/>
<path d="M1285 1181 c-8 -15 66 -70 109 -82 44 -12 119 -3 96 11 -8 5 -37 12
-64 16 -28 3 -57 10 -66 14 -8 4 -28 13 -45 20 -28 11 -28 13 -10 21 16 6 17
8 3 8 -9 1 -19 -3 -23 -8z m178 -78 c-7 -2 -21 -2 -30 0 -10 3 -4 5 12 5 17 0
24 -2 18 -5z"/>
<path d="M3492 1337 c-27 -28 -43 -72 -35 -94 4 -11 3 -14 -5 -9 -8 5 -12 -3
-11 -26 l0 -33 14 30 c39 83 66 147 62 151 -2 2 -13 -6 -25 -19z"/>
<path d="M3533 1308 c-6 -29 -7 -61 -4 -72 6 -14 11 -8 23 29 14 45 14 95 -1
95 -4 0 -12 -24 -18 -52z"/>
<path d="M3505 1183 c0 -28 -5 -28 174 -7 36 4 43 3 34 -8 -11 -12 -46 -24
-138 -46 -38 -9 -38 -10 -10 -12 l30 -2 -30 -8 c-28 -7 -28 -8 -5 -9 43 -2 93
17 133 50 53 44 38 54 -76 52 -51 0 -96 3 -102 7 -6 5 -10 -1 -10 -17z"/>
<path d="M1631 1214 c-1 -23 8 -61 19 -85 29 -66 28 -69 -37 -69 -39 0 -53 -3
-44 -9 11 -7 4 -11 -25 -14 -21 -2 4 -4 56 -5 52 0 104 3 115 8 18 8 19 9 1 9
-13 1 -16 6 -12 18 4 10 4 14 0 11 -8 -8 -34 16 -34 32 0 6 5 8 11 5 6 -4 0
13 -12 36 -12 24 -26 58 -30 74 -7 28 -7 27 -8 -11z m12 -171 c-7 -2 -21 -2
-30 0 -10 3 -4 5 12 5 17 0 24 -2 18 -5z"/>
<path d="M1680 1203 c59 -108 80 -137 80 -110 0 27 -29 79 -40 72 -9 -6 -12 2
-9 22 0 3 -6 10 -15 15 -9 5 -16 16 -16 23 0 8 -5 15 -10 15 -6 0 -1 -17 10
-37z"/>
<path d="M1500 1002 c0 -1 19 -12 43 -22 50 -23 101 -25 142 -4 17 8 23 13 15
10 -8 -2 -57 2 -107 8 -51 6 -93 10 -93 8z m143 -29 c-13 -2 -33 -2 -45 0 -13
2 -3 4 22 4 25 0 35 -2 23 -4z"/>
<path d="M3372 1232 c-1 -12 -16 -50 -33 -83 -16 -34 -25 -58 -18 -53 9 5 10
2 6 -10 -4 -10 -7 -20 -7 -22 0 -2 -5 -4 -11 -4 -5 0 -7 5 -3 12 4 7 3 8 -5 4
-6 -4 -9 -12 -6 -17 4 -5 0 -9 -7 -10 -7 0 -4 -4 7 -9 11 -5 60 -9 108 -9 49
-1 97 -6 108 -11 10 -6 19 -8 19 -6 0 10 -61 37 -70 31 -6 -3 -10 -1 -10 4 0
7 -23 11 -55 11 -52 0 -55 1 -55 24 0 14 5 28 11 31 6 4 8 14 5 22 -3 8 -1 11
4 8 15 -9 22 17 17 66 -2 24 -4 34 -5 21z m21 -189 c-7 -2 -19 -2 -25 0 -7 3
-2 5 12 5 14 0 19 -2 13 -5z"/>
<path d="M3313 1214 c-27 -29 -48 -68 -57 -109 l-8 -30 20 25 c29 38 85 140
75 139 -4 -1 -18 -12 -30 -25z"/>
<path d="M3430 997 c-72 -11 -73 -11 -35 -18 l40 -6 -41 -2 c-22 0 -44 2 -48
6 -3 4 -17 8 -29 9 -17 2 -16 0 8 -11 17 -8 47 -14 68 -15 38 0 102 23 113 41
3 5 4 8 2 8 -2 -1 -37 -6 -78 -12z"/>
<path d="M1856 1127 c9 -13 101 -126 116 -142 7 -7 8 -2 3 15 -9 28 -44 78
-46 64 -1 -5 -4 2 -8 16 -5 16 -13 24 -24 22 -9 -2 -17 4 -17 11 0 8 -7 18
-16 21 -10 4 -13 2 -8 -7z"/>
<path d="M1824 1110 c3 -14 6 -33 6 -42 0 -9 11 -30 25 -46 37 -44 33 -58 -22
-66 -41 -5 -133 -48 -133 -62 0 -9 71 -35 80 -29 6 4 10 1 10 -6 0 -8 14 -9
47 -4 65 9 136 46 83 42 -11 -1 -20 -4 -20 -7 0 -9 -169 -10 -175 -1 -7 13 20
21 124 37 92 14 127 24 82 24 -12 0 -19 4 -16 10 4 6 12 7 18 3 7 -4 -2 11
-19 32 -17 22 -46 63 -64 90 -21 33 -30 41 -26 25z m80 -115 c3 -8 1 -15 -4
-15 -6 0 -10 7 -10 15 0 8 2 15 4 15 2 0 6 -7 10 -15z"/>
<path d="M3138 1127 c-7 -8 -23 -19 -36 -26 -14 -8 -22 -21 -22 -39 0 -19 -3
-23 -9 -14 -7 11 -9 11 -14 -1 -10 -26 5 -28 30 -5 24 22 32 45 11 32 -7 -4
-8 -3 -4 5 4 6 11 9 15 7 4 -3 18 8 30 24 23 31 22 40 -1 17z"/>
<path d="M3175 1111 c-4 -17 -11 -31 -17 -31 -6 0 -8 -7 -5 -15 4 -8 1 -17 -5
-21 -7 -5 -8 -2 -4 7 4 8 0 5 -8 -5 -9 -11 -16 -26 -16 -34 0 -7 -4 -10 -10
-7 -5 3 -10 -3 -10 -14 0 -13 -7 -21 -17 -21 -15 0 -15 -2 -4 -9 11 -7 10 -10
-5 -13 -16 -3 34 -14 163 -34 18 -3 39 -11 47 -19 8 -9 17 -11 20 -6 12 18
-99 71 -150 71 -31 0 -31 24 0 61 13 15 27 47 31 69 8 49 0 65 -10 21z"/>
<path d="M3037 1001 c-4 -17 -3 -21 5 -13 5 5 8 16 6 23 -3 8 -7 3 -11 -10z"/>
<path d="M3070 896 c0 -3 12 -12 28 -20 36 -18 112 -31 112 -18 0 6 9 8 19 5
11 -3 28 0 38 6 15 9 13 11 -17 11 -83 2 -137 7 -157 14 -13 4 -23 5 -23 2z"/>
<path d="M2020 1058 c0 -24 42 -97 64 -112 26 -16 43 -68 19 -59 -7 3 -13 0
-13 -7 0 -6 -5 -8 -10 -5 -13 8 -80 -13 -80 -25 0 -5 -9 -12 -21 -15 -11 -4
-18 -9 -15 -12 6 -7 196 55 210 68 5 4 -1 5 -13 2 -17 -4 -20 -2 -15 11 5 12
2 15 -12 9 -12 -4 -15 -3 -10 5 4 8 -13 35 -43 69 -28 31 -51 61 -51 65 0 17
27 7 51 -18 38 -41 119 -107 119 -97 0 5 -9 19 -20 31 -11 12 -20 27 -20 33 0
7 -3 9 -7 6 -3 -4 -13 2 -20 13 -24 34 -113 64 -113 38z"/>
<path d="M2155 829 c-4 -5 -12 -8 -18 -6 -7 2 -32 -2 -57 -8 -25 -7 -58 -16
-75 -20 l-30 -8 30 -8 c34 -10 65 -4 117 22 32 17 58 39 44 39 -3 0 -8 -5 -11
-11z m-55 -29 c-8 -5 -19 -10 -25 -10 -5 0 -3 5 5 10 8 5 20 10 25 10 6 0 3
-5 -5 -10z"/>
<path d="M2925 1053 c-37 -20 -76 -58 -101 -98 l-18 -30 30 25 c60 51 133 120
126 120 -4 -1 -20 -8 -37 -17z"/>
<path d="M2980 1063 c0 -6 -16 -30 -35 -55 -19 -25 -31 -48 -28 -52 4 -3 -1
-6 -10 -6 -9 0 -19 -5 -23 -12 -5 -7 -3 -8 6 -3 9 5 11 4 6 -3 -4 -7 -14 -12
-22 -12 -8 0 -13 -6 -11 -12 1 -7 -4 -12 -10 -11 -7 2 -13 -1 -13 -6 0 -5 46
-24 103 -42 121 -38 123 -39 106 -50 -10 -6 -10 -9 -2 -9 48 0 -18 61 -95 89
-25 9 -47 21 -49 27 -2 6 12 28 31 49 35 38 64 101 52 112 -3 4 -6 2 -6 -4z"/>
<path d="M2861 816 c47 -32 107 -48 144 -37 l30 8 -45 12 c-25 6 -68 18 -96
26 -69 20 -75 19 -33 -9z m114 -26 c13 -6 15 -9 5 -9 -8 0 -22 4 -30 9 -18 12
-2 12 25 0z"/>
<path d="M2327 976 c87 -59 113 -71 73 -33 -14 12 -28 21 -32 20 -5 -2 -8 4
-8 12 0 8 -10 19 -21 26 -17 8 -20 8 -14 -1 5 -8 3 -11 -6 -8 -8 3 -13 11 -11
17 1 6 -4 11 -12 11 -8 0 -23 3 -33 6 -10 4 19 -19 64 -50z m23 4 c0 -5 -2
-10 -4 -10 -3 0 -8 5 -11 10 -3 6 -1 10 4 10 6 0 11 -4 11 -10z"/>
<path d="M2240 998 c0 -22 37 -70 68 -90 24 -15 32 -27 32 -48 0 -23 -4 -27
-20 -23 -21 6 -75 -24 -106 -58 -18 -20 -17 -20 36 4 30 13 81 37 112 52 49
25 55 30 40 41 -13 10 -19 9 -30 -5 -7 -9 -11 -11 -8 -5 3 7 -1 14 -9 18 -8 3
-15 11 -15 17 0 7 5 8 13 3 7 -5 -3 4 -23 21 -19 16 -47 42 -62 57 -16 14 -28
22 -28 16z"/>
<path d="M2409 813 c-13 -16 -12 -17 4 -4 9 7 17 15 17 17 0 8 -8 3 -21 -13z"/>
<path d="M2322 777 c-38 -14 -49 -23 -40 -29 8 -6 -7 -8 -42 -5 -45 4 -50 3
-27 -5 31 -11 121 -2 112 12 -2 4 3 7 13 6 9 0 16 4 15 11 -2 7 3 10 11 7 8
-3 17 -1 20 5 12 19 -9 18 -62 -2z"/>
<path d="M2712 1019 c-20 -6 -30 -14 -26 -21 4 -7 3 -8 -5 -4 -15 10 -43 -13
-34 -27 3 -5 2 -7 -4 -4 -5 4 -23 -8 -39 -25 l-29 -31 42 24 c54 31 151 99
138 98 -6 0 -25 -5 -43 -10z"/>
<path d="M2770 1021 c0 -6 -25 -37 -57 -68 -31 -31 -52 -50 -48 -43 5 8 -8 1
-28 -14 -20 -16 -37 -30 -37 -33 0 -2 41 -24 92 -49 100 -48 115 -58 100 -68
-10 -6 -172 55 -202 76 -8 6 5 -8 29 -31 25 -23 51 -39 58 -37 8 3 11 2 8 -3
-8 -14 80 -25 112 -13 l28 9 -47 46 c-26 25 -57 47 -69 49 -12 2 -27 11 -33
20 -9 14 -3 24 32 54 39 33 79 100 67 112 -3 3 -5 0 -5 -7z"/>
<path d="M1109 4609 l-24 -20 28 17 c15 9 27 18 27 20 0 8 -8 4 -31 -17z"/>
<path d="M1015 4544 l-30 -26 33 22 c17 12 32 23 32 26 0 7 -4 5 -35 -22z"/>
<path d="M932 4483 c-24 -24 -24 -25 -2 -8 42 33 44 35 37 35 -4 0 -19 -12
-35 -27z"/>
<path d="M4060 4506 c0 -2 8 -10 18 -17 15 -13 16 -12 3 4 -13 16 -21 21 -21
13z"/>
<path d="M4115 4460 c10 -11 20 -20 23 -20 3 0 -3 9 -13 20 -10 11 -20 20 -23
20 -3 0 3 -9 13 -20z"/>
<path d="M854 4417 l-29 -32 30 25 c17 14 32 26 34 28 2 1 2 4 -1 7 -2 3 -18
-10 -34 -28z"/>
<path d="M4150 4437 c0 -2 15 -16 33 -33 l32 -29 -29 33 c-28 30 -36 37 -36
29z"/>
<path d="M748 4327 c-118 -109 -322 -359 -373 -457 -24 -47 -11 -35 30 28 79
119 194 260 302 371 62 64 111 116 110 117 -1 1 -32 -26 -69 -59z"/>
<path d="M4328 4267 c219 -228 402 -504 522 -785 13 -29 25 -51 27 -48 3 2 -9
36 -26 74 -17 39 -31 74 -31 78 0 16 -76 154 -137 248 -130 200 -243 339 -388
476 -62 58 -54 48 33 -43z"/>
<path d="M338 3808 c-22 -34 -52 -95 -41 -83 13 14 65 105 60 105 -3 0 -11
-10 -19 -22z"/>
<path d="M55 3140 c-4 -17 -5 -34 -2 -36 2 -3 7 10 11 27 8 42 0 50 -9 9z"/>
<path d="M4961 3165 c0 -5 8 -37 18 -70 l19 -60 1 58 c1 43 -2 57 -13 57 -8 0
-17 6 -19 13 -3 6 -6 8 -6 2z"/>
<path d="M41 3074 c0 -11 3 -14 6 -6 3 7 2 16 -1 19 -3 4 -6 -2 -5 -13z"/>
<path d="M0 2046 c0 -7 7 -19 15 -26 16 -13 20 -3 9 24 -8 20 -24 21 -24 2z"/>
<path d="M4987 1916 c-5 -21 -6 -41 -3 -44 12 -11 17 7 14 44 l-3 39 -8 -39z"/>
<path d="M121 1644 c0 -11 3 -14 6 -6 3 7 2 16 -1 19 -3 4 -6 -2 -5 -13z"/>
<path d="M130 1615 c0 -5 5 -17 10 -25 5 -8 10 -10 10 -5 0 6 -5 17 -10 25 -5
8 -10 11 -10 5z"/>
<path d="M240 1366 c0 -26 152 -293 214 -375 39 -52 86 -114 105 -139 53 -71
286 -298 370 -361 157 -117 218 -155 373 -232 166 -84 196 -91 43 -11 -166 87
-367 222 -482 324 -237 212 -443 467 -577 718 -25 47 -46 81 -46 76z"/>
<path d="M4559 998 c-54 -78 -219 -266 -308 -350 -53 -50 -69 -69 -36 -41 90
76 233 228 300 318 32 44 63 86 68 93 5 6 7 12 4 12 -3 0 -16 -15 -28 -32z"/>
<path d="M4114 528 l-19 -23 23 19 c12 11 22 21 22 23 0 8 -8 2 -26 -19z"/>
<path d="M1970 10 c0 -5 12 -10 26 -10 14 0 23 4 19 10 -3 6 -15 10 -26 10
-10 0 -19 -4 -19 -10z"/>
<path d="M3025 10 c3 -5 13 -10 21 -10 8 0 14 5 14 10 0 6 -9 10 -21 10 -11 0
-17 -4 -14 -10z"/>
</g>
</svg>
